<?xml version="1.0" encoding="UTF-8"?>
<svg width="21px" height="16px" viewBox="0 0 21 16" version="1.1" xmlns="http://www.w3.org/2000/svg" xmlns:xlink="http://www.w3.org/1999/xlink">
    <!-- Generator: Sketch 39 (31667) - http://www.bohemiancoding.com/sketch -->
    <title>friendcircle-camera</title>
    <desc>Created with Sketch.</desc>
    <defs></defs>
    <g id="发现" stroke="none" stroke-width="1" fill="none" fill-rule="evenodd">
        <g id="02-发现-车友圈" transform="translate(-342.000000, -35.000000)" fill="#FFFFFF">
            <g id="Navigation-Bar">
                <path d="M359.999133,51 L344.999566,51 C343.342721,51 342,49.7261021 342,48.1546395 L342,39.6212123 C342,38.0509711 343.342721,36.7777308 344.999566,36.7777308 L347.095123,36.7777308 C347.540577,35.7351155 348.616064,35 349.874852,35 L355.12416,35 C356.382949,35 357.459086,35.7351155 357.904516,36.7777308 L359.999109,36.7777308 C361.655907,36.7777308 363,38.0509711 363,39.6212123 L363,48.1546395 C363,49.7260786 361.655931,51 359.999133,51 L359.999133,51 L359.999133,51 Z M352.499506,38.5560488 C349.599912,38.5560488 347.249597,40.7837789 347.249597,43.5328636 C347.249597,46.2819483 349.599936,48.5108997 352.499506,48.5108997 C355.398475,48.5108997 357.748766,46.2819483 357.748766,43.5328636 C357.748766,40.7837789 355.398475,38.5560488 352.499506,38.5560488 L352.499506,38.5560488 L352.499506,38.5560488 Z M352.499506,47.0882782 C350.428636,47.0882782 348.750018,45.4968512 348.750018,43.5328871 C348.750018,41.5689229 350.428636,39.977449 352.499506,39.977449 C354.570377,39.977449 356.249645,41.5688995 356.249645,43.5328871 C356.249645,45.4968747 354.570401,47.0882782 352.499506,47.0882782 L352.499506,47.0882782 L352.499506,47.0882782 Z" id="friendcircle-camera"></path>
            </g>
        </g>
    </g>
</svg>