<?xml version="1.0" encoding="UTF-8"?>
<svg width="17px" height="17px" viewBox="0 0 17 17" version="1.1" xmlns="http://www.w3.org/2000/svg" xmlns:xlink="http://www.w3.org/1999/xlink">
    <!-- Generator: Sketch 39 (31667) - http://www.bohemiancoding.com/sketch -->
    <title>Artboard</title>
    <desc>Created with Sketch.</desc>
    <defs></defs>
    <g id="发现" stroke="none" stroke-width="1" fill="none" fill-rule="evenodd">
        <g id="Artboard" fill="#80858C">
            <path d="M8.5,15.5 C8.43263158,15.5 8.35684211,15.4835294 8.29789474,15.4505882 C8.22210526,15.4094118 6.33578947,14.38 4.43263158,12.6917647 C3.30421053,11.6952941 2.40315789,10.6741176 1.75473684,9.66117647 C0.921052632,8.36823529 0.5,7.07529412 0.5,5.82352941 C0.5,3.44352941 2.48736842,1.5 4.92105263,1.5 C5.74631579,1.5 6.62210526,1.80470588 7.38842105,2.34823529 C7.83473684,2.66941176 8.22210526,3.05647059 8.5,3.46823529 C8.77789474,3.05647059 9.16526316,2.66941176 9.61157895,2.34823529 C10.3778947,1.79647059 11.2536842,1.5 12.0789474,1.5 C14.5126316,1.5 16.5,3.43529412 16.5,5.82352941 C16.5,7.07529412 16.0789474,8.36823529 15.2536842,9.66117647 C14.6052632,10.6741176 13.7042105,11.6952941 12.5757895,12.6917647 C10.6642105,14.38 8.78631579,15.4011765 8.71052632,15.4505882 C8.64315789,15.4835294 8.56736842,15.5 8.5,15.5 L8.5,15.5 Z M4.92105263,2.32352941 C2.95052632,2.32352941 1.34210526,3.89647059 1.34210526,5.82352941 C1.34210526,8.32705882 3.32105263,10.6 4.98,12.0658824 C6.46210526,13.3752941 7.96105263,14.2976471 8.5,14.6105882 C9.03894737,14.2976471 10.5378947,13.3835294 12.02,12.0658824 C13.6789474,10.6 15.6578947,8.32705882 15.6578947,5.82352941 C15.6578947,3.89647059 14.0494737,2.32352941 12.0789474,2.32352941 C10.6473684,2.32352941 9.24947368,3.47647059 8.89578947,4.51411765 C8.83684211,4.67882353 8.67684211,4.79411765 8.5,4.79411765 C8.32315789,4.79411765 8.15473684,4.67882353 8.10421053,4.51411765 C7.75052632,3.47647059 6.35263158,2.32352941 4.92105263,2.32352941 L4.92105263,2.32352941 Z" id="state-thumbs-up"></path>
        </g>
    </g>
</svg>