<?xml version="1.0" encoding="UTF-8"?>
<svg width="17px" height="17px" viewBox="0 0 17 17" version="1.1" xmlns="http://www.w3.org/2000/svg" xmlns:xlink="http://www.w3.org/1999/xlink">
    <!-- Generator: Sketch 39 (31667) - http://www.bohemiancoding.com/sketch -->
    <title>Artboard</title>
    <desc>Created with Sketch.</desc>
    <defs></defs>
    <g id="发现" stroke="none" stroke-width="1" fill="none" fill-rule="evenodd">
        <g id="Artboard" fill="#80858C">
            <path d="M3.69479394,16 C3.61270813,16 3.53058346,15.9812081 3.45652166,15.9434837 C3.30365749,15.8656266 3.2090791,15.7192292 3.2090791,15.5605266 L3.2090791,12.9806948 L3.18463793,12.9651375 C2.6999528,12.6570315 2.25696144,12.3065075 1.86800099,11.9233043 C1.47647597,11.5375873 1.13876816,11.117855 0.864261559,10.6757272 C0.584664668,10.2254604 0.369454137,9.74996777 0.224594542,9.26246874 C0.0755578006,8.76095929 0,8.24296081 0,7.72290559 C0,6.81621926 0.224322542,5.93662208 0.666731048,5.10849602 C1.09433496,4.30807436 1.70666595,3.5890959 2.48672398,2.97151275 C3.26734545,2.35347254 4.17650649,1.86820603 5.1889305,1.52919627 C6.23754999,1.17803946 7.35156612,1 8.50004857,1 C9.6485116,1 10.7625083,1.17803946 11.8111084,1.52919627 C12.8235129,1.86822361 13.732674,2.35349012 14.513276,2.97151275 C15.2933146,3.5890959 15.905665,4.30807436 16.3332884,5.10849602 C16.7756969,5.93662208 17,6.81623684 17,7.72288801 C17,8.62971496 16.7756775,9.5094352 16.333269,10.3375964 C15.905665,11.1380005 15.2933535,11.8569965 14.513276,12.4745621 C13.7326546,13.0925672 12.8234935,13.5777985 11.8110889,13.9167555 C10.7625666,14.2678596 9.64855046,14.4458815 8.50004857,14.4458815 C7.98142169,14.4458815 7.46120167,14.4061531 6.90968218,14.3244286 L6.88871873,14.3213347 L3.94674394,15.9362412 C3.86941814,15.9786943 3.78214489,16 3.69479394,16 L3.69479394,16 Z M8.49933573,1.87894676 C7.45857451,1.87894676 6.45050224,2.03861623 5.50311005,2.3535077 C4.59529692,2.65523255 3.78187068,3.08572309 3.08543955,3.63299051 C2.39904999,4.17238256 1.86173768,4.79750707 1.4884769,5.49103123 C1.10746473,6.19889979 0.914286759,6.94980159 0.914286759,7.72290559 C0.914286759,8.16592991 0.979116572,8.60714361 1.10701452,9.03429416 C1.23183931,9.45124892 1.41775524,9.85867591 1.65959472,10.2452543 C1.89926145,10.6283696 2.19493003,10.9929215 2.53839885,11.3288023 C2.88278766,11.6655443 3.27587712,11.9741426 3.70674483,12.2460008 L3.93940399,12.3928376 C4.06980744,12.4751246 4.14741922,12.6092871 4.14741922,12.7524148 L4.14741922,14.7799164 L6.5228094,13.48572 C6.62255962,13.4313836 6.74059216,13.4107986 6.85572772,13.4277623 L7.05520858,13.4571015 C7.55801155,13.5310385 8.0303766,13.5669875 8.49931616,13.5669875 C9.54011653,13.5669875 10.5481888,13.4073532 11.4955223,13.0924968 C12.4033158,12.7908247 13.2167225,12.3603869 13.9131536,11.8131547 C14.5995432,11.2737626 15.1368359,10.6486557 15.5100771,9.9551491 C15.8910893,9.2472278 16.0842868,8.49622053 16.0842868,7.72295832 C16.0842868,6.94987191 15.8911089,6.19895253 15.5100967,5.49108396 C15.1368359,4.79757739 14.5995236,4.17243529 13.913134,3.63304324 C13.2167225,3.08577583 12.4032962,2.65530286 11.4955027,2.35356044 C10.5481497,2.03859865 9.54007738,1.87894676 8.49933573,1.87894676 L8.49933573,1.87894676 Z M12.5467404,8.72863163 C11.9910369,8.72863163 11.5400009,8.29560972 11.5400009,7.7607003 C11.5400009,7.22586119 11.9910369,6.79287444 12.5467404,6.79287444 C13.1025536,6.79287444 13.5535895,7.22647645 13.5535895,7.7607003 C13.5535895,8.29502961 13.1025536,8.72863163 12.5467404,8.72863163 L12.5467404,8.72863163 L12.5467404,8.72863163 Z M8.51685129,8.72863163 C7.9616598,8.72863163 7.51000214,8.29560972 7.51000214,7.7607003 C7.51000214,7.22586119 7.9616598,6.79287444 8.51685129,6.79287444 C9.07255478,6.79287444 9.52359072,7.22647645 9.52359072,7.7607003 C9.52359072,8.29502961 9.07255478,8.72863163 8.51685129,8.72863163 L8.51685129,8.72863163 L8.51685129,8.72863163 Z M4.4967373,8.72863163 C3.94161895,8.72863163 3.48999786,8.29560972 3.48999786,7.7607003 C3.48999786,7.22586119 3.94161895,6.79287444 4.4967373,6.79287444 C5.05244079,6.79287444 5.50347674,7.22647645 5.50347674,7.7607003 C5.50347674,8.29502961 5.05244079,8.72863163 4.4967373,8.72863163 L4.4967373,8.72863163 L4.4967373,8.72863163 Z" id="state-comment"></path>
        </g>
    </g>
</svg>