<?xml version="1.0" encoding="UTF-8"?>
<svg width="17px" height="17px" viewBox="0 0 17 17" version="1.1" xmlns="http://www.w3.org/2000/svg" xmlns:xlink="http://www.w3.org/1999/xlink">
    <!-- Generator: Sketch 39 (31667) - http://www.bohemiancoding.com/sketch -->
    <title>Artboard</title>
    <desc>Created with Sketch.</desc>
    <defs></defs>
    <g id="发现" stroke="none" stroke-width="1" fill="none" fill-rule="evenodd">
        <g id="Artboard" fill="#80858C">
            <path d="M15.5454516,3.89999545 L1.45454845,3.89999545 C1.20317001,3.89999545 1,3.7211918 1,3.49999379 C1,3.27920134 1.20318646,3.09999214 1.45454845,3.09999214 L15.5454516,3.09999214 C15.79683,3.09999214 16,3.27918685 16,3.49999379 C16,3.72120628 15.7968135,3.89999545 15.5454516,3.89999545 L15.5454516,3.89999545 Z M11,2.30000331 L6,2.30000331 C5.74862156,2.30000331 5.54545155,2.12119966 5.54545155,1.90000166 C5.54545155,1.6792092 5.74863802,1.5 6,1.5 L11,1.5 C11.2513784,1.5 11.4545484,1.67919472 11.4545484,1.90000166 C11.4545484,2.12121414 11.251362,2.30000331 11,2.30000331 L11,2.30000331 Z M6.45453199,12.6999884 L6.45453199,5.90000372 C6.45453199,5.67921127 6.65771845,5.50000207 6.90908044,5.50000207 C7.16044242,5.50000207 7.36362888,5.67919679 7.36362888,5.90000372 L7.36362888,12.6999884 C7.36362888,12.9212009 7.16044242,13.0999901 6.90908044,13.0999901 C6.65771845,13.0999901 6.45453199,12.9211864 6.45453199,12.6999884 L6.45453199,12.6999884 Z M9.63635466,12.6999884 L9.63635466,5.90000372 C9.63635466,5.67921127 9.83954112,5.50000207 10.0909031,5.50000207 C10.3422651,5.50000207 10.5454516,5.67919679 10.5454516,5.90000372 L10.5454516,12.6999884 C10.5454516,12.9212009 10.3422651,13.0999901 10.0909031,13.0999901 C9.83954112,13.0999901 9.63635466,12.9211864 9.63635466,12.6999884 L9.63635466,12.6999884 Z M3.27270932,5.1000149 C3.52408776,5.1000149 3.72725776,5.27920961 3.72725776,5.50001655 L3.72725776,13.9000079 C3.72725776,14.3416073 4.13453594,14.6999967 4.6363382,14.6999967 L12.3636124,14.6999967 C12.8654311,14.6999967 13.2726929,14.3415928 13.2726929,13.9000079 L13.2726929,5.50001655 C13.2726929,5.2792241 13.4758793,5.1000149 13.7272413,5.1000149 C13.9786033,5.1000149 14.1817898,5.27920961 14.1817898,5.50001655 L14.1817898,14.299995 C14.1817898,14.9627924 13.5713416,15.5 12.8181444,15.5 L4.18177329,15.5 C3.42859259,15.5 2.81812795,14.9628069 2.81812795,14.299995 L2.81812795,5.50001655 C2.81812795,5.2792241 3.02131442,5.1000149 3.2726764,5.1000149 L3.27270932,5.1000149 Z" id="state-delete"></path>
        </g>
    </g>
</svg>